HIERARCHY
ROOT Hips
{
	OFFSET 0.000000 0.000000 0.000000
	CHANNELS 6 Xposition Yposition Zposition Zrotation Yrotation Xrotation 
		JOINT LeftUpLeg
		{
			OFFSET 1.363060 -1.794630 0.839290
			CHANNELS 3 Zrotation Yrotation Xrotation
			JOINT LeftLeg
			{
				OFFSET 2.448110 -6.726130 0.000000
				CHANNELS 3 Zrotation Yrotation Xrotation
				JOINT LeftFoot
				{
					OFFSET 2.562200 -7.039590 0.000000
					CHANNELS 3 Zrotation Yrotation Xrotation
					JOINT LeftToeBase
					{
						OFFSET 0.157640 -0.433110 2.322550
						CHANNELS 3 Zrotation Yrotation Xrotation
						End Site
						{
							OFFSET 0.000000 0.000000 0.000000
						}
					}
				}
			}
		}
		JOINT RightUpLeg
		{
			OFFSET -1.305520 -1.794630 0.839290
			CHANNELS 3 Zrotation Yrotation Xrotation
			JOINT RightLeg
			{
				OFFSET -2.542530 -6.985550 0.000000
				CHANNELS 3 Zrotation Yrotation Xrotation
				JOINT RightFoot
				{
					OFFSET -2.568260 -7.056230 0.000000
					CHANNELS 3 Zrotation Yrotation Xrotation
					JOINT RightToeBase
					{
						OFFSET -0.164730 -0.452590 2.363150
						CHANNELS 3 Zrotation Yrotation Xrotation
						End Site
						{
							OFFSET 0.000000 0.000000 0.000000
						}
					}
				}
			}
		}
		JOINT Spine
		{
			OFFSET -0.000000 1.017795 0.000000
			CHANNELS 3 Zrotation Yrotation Xrotation
			JOINT Spine1
			{
				OFFSET 0.056720 2.048850 -0.042750
				CHANNELS 3 Zrotation Yrotation Xrotation
            JOINT Spine2
            {
                OFFSET -0.000000 1.017795 0.000000
                CHANNELS 3 Zrotation Yrotation Xrotation
					JOINT Neck
					{
						OFFSET -0.054170 1.746240 0.172020
						CHANNELS 3 Zrotation Yrotation Xrotation
						JOINT Head
						{
							OFFSET 0.104070 1.761360 -0.123970
							CHANNELS 3 Zrotation Yrotation Xrotation
							End Site
							{
								OFFSET 0.000000 0.000000 0.000000
							}
						}
					}
				JOINT LeftShoulder
				{
					OFFSET 0.000000 0.000000 0.000000
					CHANNELS 3 Zrotation Yrotation Xrotation
					JOINT LeftArm
					{
						OFFSET 3.362410 1.200890 -0.311210
						CHANNELS 3 Zrotation Yrotation Xrotation
						JOINT LeftForeArm
						{
							OFFSET 4.983000 -0.000000 -0.000000
							CHANNELS 3 Zrotation Yrotation Xrotation
							JOINT LeftHand
							{
								OFFSET 3.483560 -0.000000 -0.000000
								CHANNELS 3 Zrotation Yrotation Xrotation
									End Site
									{
										OFFSET 0.000000 0.000000 0.000000
									}
							}
						}
					}
				}
				JOINT RightShoulder
				{
					OFFSET 0.000000 0.000000 0.000000
					CHANNELS 3 Zrotation Yrotation Xrotation
					JOINT RightArm
					{
						OFFSET -3.136600 1.374050 -0.404650
						CHANNELS 3 Zrotation Yrotation Xrotation
						JOINT RightForeArm
						{
							OFFSET -5.241900 -0.000000 -0.000000
							CHANNELS 3 Zrotation Yrotation Xrotation
							JOINT RightHand
							{
								OFFSET -3.444170 -0.000000 -0.000000
								CHANNELS 3 Zrotation Yrotation Xrotation
									End Site
									{
										OFFSET 0.000000 0.000000 0.000000
									}
							}
						}
					}
				}
			}
            }
		}
}
MOTION
Frames: 5
Frame Time: 0.008333
12.673739    20.148971    1.217279    23.130433    -84.272085    1.042970    -15.40497    -1.777698    -24.011089    0.308200    0.573127    24.205365    2.001255    11.377334    29.229575    6.328000    0.000000    -56.880100    13.790394000000001    -9.906325    -24.760973    0.851356    -1.190182    20.711930    -0.895440    -5.026461    20.971864    -2.704401    -0.000000    -80.773700    0.000000    0.000000    0.000000    0.151057    -1.718591    -11.320483    -3.855880    -0.818270    -4.960821    1.73433    -1.658426    11.058618    0.000000    0.000000    0.000000    9.718943    -2.595764    -5.459251    -61.286064    -61.157001    -8.489001    176.210582    -64.229098    179.650543    21.380864    -4.660230    -1.083895    -0.668110    -3.443740    -5.607579    53.171850    66.813021    -17.171674    -177.620412    79.952427    179.630164    -24.547787    16.529380    -3.875591
12.532044    20.257496    1.209512    22.987289    -84.257241    1.383089    -15.570765    -1.951199    -24.720750000000002    0.225426    0.567310    23.479020    1.920098    11.068356    28.614689    6.108000    0.000000    -57.011200    13.919538    -9.932504    -25.347340000000003    1.015515    -1.093801    19.277685    -0.859775    -5.112019    20.524446    -2.775200    -0.000000    -80.730700    0.000000    0.000000    0.000000    0.24234999999999998    -1.682968    -11.176151    -3.849590    -0.799611    -4.897251    1.719634    -1.57613    11.205665    0.000000    0.000000    0.000000    9.667910    -2.179348    -5.485628    -60.283984    -61.395430    -9.796788    175.984414    -62.454426    179.635233    22.287382    -5.211433    -1.245617    -0.800291    -3.666661    -5.792373    52.068042    66.897428    -18.768195    -177.341305    77.999002    179.624529    -25.082675    16.627512    -3.988961
12.392273    20.356109    1.201656    22.753525    -84.235633    1.820312    -15.730837000000001    -2.1453339999999996    -25.388861    0.134213    0.553694    22.542462    1.834399    10.698769    28.214360    5.886200    -0.000000    -57.142200    14.062686    -9.92121    -25.914915    1.187889    -0.987083    17.761715    -0.811013    -5.092302    20.170497    -2.799100    0.000000    -80.671200    0.000000    0.000000    0.000000    0.34123400000000004    -1.6448749999999999    -11.025005    -3.850948    -0.780757    -4.826546    1.7114540000000003    -1.4912130000000001    11.35083    0.000000    0.000000    0.000000    9.570996    -1.815008    -5.496958    -59.357629    -61.631385    -10.913568    175.805754    -60.888302    179.622280    23.072085    -5.757251    -1.408324    -0.899566    -3.869377    -5.953071    51.097172    66.948513    -20.175138    -177.090712    76.207290    179.619618    -25.599197    16.736745    -4.103025
12.253996    20.444422    1.193576    22.469162    -84.211282    2.315710    -15.884287    -2.3667819999999997    -26.015627    0.035218    0.531828    21.414873    1.745779    10.294887    28.005983    5.673500    -0.000000    -57.366200    14.212911    -9.861201    -26.469137    1.364932    -0.870397    16.196302    -0.752259    -4.993691    19.880069    -2.787900    -0.000000    -80.734500    0.000000    0.000000    0.000000    0.4397209999999999    -1.605043    -10.877044999999999    -3.857926    -0.761724    -4.750237    1.7092079999999998    -1.409008    11.49112    0.000000    0.000000    0.000000    9.449144    -1.501301    -5.498368    -58.560452    -61.852093    -11.806624    175.673101    -59.533569    179.611827    23.712203    -6.287612    -1.566318    -0.967738    -4.051771    -6.088283    50.273409    66.969729    -21.371826    -176.869705    74.585881    179.615283    -26.104887    16.844053    -4.215986
12.116739    20.522191    1.185230    22.164590    -84.187630    2.840123    -16.032273    -2.611331    -26.610008    -0.072374    0.502120    20.134328    1.653824    9.867805    27.930274    5.466900    0.000000    -57.638100    14.364841    -9.751492    -27.020948    1.544340    -0.745386    14.624456    -0.684936    -4.826852    19.609326    -2.744000    0.000000    -80.853600    0.000000    0.000000    0.000000    0.53294    -1.564266    -10.739611    -3.868363    -0.742604    -4.669644    1.7109739999999998    -1.334555    11.623386    0.000000    0.000000    0.000000    9.322159    -1.234828    -5.494254    -57.936035    -62.045059    -12.453339    175.582562    -58.386060    179.603872    24.195116    -6.789206    -1.712993    -1.008369    -4.213892    -6.197448    49.608076    66.964919    -22.340942    -176.678697    73.144578    179.611414    -26.602114    16.936031    -4.324639
